<svg xmlns="http://www.w3.org/2000/svg" xmlns:xlink="http://www.w3.org/1999/xlink" width="500" zoomAndPan="magnify" viewBox="0 0 375 374.999991" height="500" preserveAspectRatio="xMidYMid meet" version="1.0"><path fill="#be50f8" d="M 348.046875 28.125 L 347.460938 31.054688 C 347.460938 31.347656 347.460938 31.933594 348.046875 32.226562 C 348.339844 32.519531 348.925781 32.519531 349.21875 32.226562 L 351.5625 30.761719 L 353.90625 32.226562 C 354.199219 32.519531 354.785156 32.519531 355.078125 32.226562 C 355.371094 31.933594 355.664062 31.640625 355.664062 31.054688 L 355.078125 28.125 L 357.128906 26.074219 C 357.421875 25.78125 357.421875 25.195312 357.421875 24.902344 C 357.421875 24.609375 356.835938 24.316406 356.542969 24.023438 L 353.90625 23.730469 L 352.734375 21.09375 C 352.441406 20.800781 351.855469 20.507812 351.5625 20.507812 C 351.269531 20.507812 350.683594 20.800781 350.683594 21.09375 L 349.511719 23.730469 L 346.875 24.023438 C 346.582031 24.023438 345.996094 24.316406 345.996094 24.902344 C 345.996094 25.195312 345.996094 25.78125 346.289062 26.074219 Z M 348.046875 28.125 " fill-opacity="1" fill-rule="nonzero"/><path fill="#be50f8" d="M 339.84375 186.035156 C 339.84375 185.742188 339.257812 185.449219 338.964844 185.15625 L 336.328125 184.863281 L 335.15625 182.226562 C 334.863281 181.933594 334.570312 181.640625 334.277344 181.640625 C 333.984375 181.640625 333.398438 181.933594 333.398438 182.226562 L 332.226562 184.863281 L 329.589844 185.15625 C 329.296875 185.15625 328.710938 185.449219 328.710938 186.035156 C 328.710938 186.328125 328.710938 186.914062 329.003906 187.207031 L 331.054688 189.257812 L 330.46875 192.1875 C 330.46875 192.480469 330.46875 193.066406 331.054688 193.359375 C 331.347656 193.652344 331.933594 193.652344 332.226562 193.359375 L 334.570312 191.894531 L 336.914062 193.359375 C 337.207031 193.652344 337.792969 193.652344 338.085938 193.359375 C 338.378906 193.066406 338.671875 192.773438 338.671875 192.1875 L 338.085938 189.257812 L 340.136719 187.207031 C 339.84375 186.914062 339.84375 186.328125 339.84375 186.035156 Z M 339.84375 186.035156 " fill-opacity="1" fill-rule="nonzero"/><path fill="#be50f8" d="M 52.148438 131.542969 C 52.441406 131.835938 53.027344 131.835938 53.320312 131.542969 L 55.664062 130.078125 L 58.007812 131.542969 C 58.300781 131.835938 58.886719 131.835938 59.179688 131.542969 C 59.472656 131.25 59.765625 130.957031 59.765625 130.371094 L 59.179688 127.441406 L 61.230469 125.390625 C 61.523438 125.097656 61.523438 124.511719 61.523438 124.21875 C 61.523438 123.925781 60.9375 123.632812 60.644531 123.339844 L 58.007812 123.046875 L 56.835938 120.410156 C 56.542969 120.410156 55.957031 120.117188 55.664062 120.117188 C 55.371094 120.117188 54.785156 120.410156 54.785156 120.703125 L 53.613281 123.339844 L 50.976562 123.632812 C 50.683594 123.632812 50.097656 123.925781 50.097656 124.511719 C 50.097656 124.804688 50.097656 125.390625 50.390625 125.683594 L 52.441406 127.734375 L 51.855469 130.664062 C 51.5625 130.957031 51.855469 131.25 52.148438 131.542969 Z M 52.148438 131.542969 " fill-opacity="1" fill-rule="nonzero"/><path fill="#be50f8" d="M 193.359375 332.519531 C 193.359375 332.226562 192.773438 331.933594 192.480469 331.640625 L 189.84375 331.347656 L 188.671875 328.710938 C 188.378906 328.417969 188.085938 328.125 187.792969 328.125 C 187.5 328.125 186.914062 328.417969 186.914062 328.710938 L 185.742188 331.347656 L 183.105469 331.640625 C 182.8125 331.640625 182.226562 331.933594 182.226562 332.519531 C 182.226562 332.8125 182.226562 333.398438 182.519531 333.691406 L 184.570312 335.742188 L 183.984375 338.671875 C 183.984375 338.964844 183.984375 339.550781 184.570312 339.84375 C 184.863281 340.136719 185.449219 340.136719 185.742188 339.84375 L 188.085938 338.378906 L 190.429688 339.84375 C 190.722656 340.136719 191.308594 340.136719 191.601562 339.84375 C 191.894531 339.550781 192.1875 339.257812 192.1875 338.671875 L 191.601562 335.742188 L 193.652344 333.691406 C 193.359375 333.398438 193.359375 332.8125 193.359375 332.519531 Z M 193.359375 332.519531 " fill-opacity="1" fill-rule="nonzero"/><path fill="#be50f8" d="M 251.953125 130.371094 C 251.953125 130.078125 251.367188 129.785156 251.074219 129.492188 L 248.4375 129.199219 L 247.265625 126.5625 C 246.972656 126.269531 246.386719 125.976562 246.09375 125.976562 C 245.800781 125.976562 245.214844 126.269531 245.214844 126.5625 L 244.042969 129.199219 L 241.40625 129.492188 C 241.113281 129.492188 240.527344 129.785156 240.527344 130.371094 C 240.527344 130.664062 240.527344 131.25 240.820312 131.542969 L 242.871094 133.59375 L 242.285156 136.523438 C 242.285156 136.816406 242.285156 137.402344 242.871094 137.695312 C 243.164062 137.988281 243.75 137.988281 244.042969 137.695312 L 246.386719 136.230469 C 246.386719 136.230469 248.730469 137.695312 248.730469 137.695312 C 249.023438 137.988281 249.609375 137.988281 249.902344 137.695312 C 250.195312 137.402344 250.488281 137.109375 250.488281 136.523438 L 249.902344 133.59375 L 251.953125 131.542969 C 251.953125 131.25 251.953125 130.664062 251.953125 130.371094 Z M 251.953125 130.371094 " fill-opacity="1" fill-rule="nonzero"/><path fill="#be50f8" d="M 226.171875 161.132812 C 217.675781 148.828125 203.613281 140.625 187.5 140.625 C 171.386719 140.625 157.03125 148.828125 148.535156 161.425781 C 126.855469 166.40625 114.257812 173.730469 114.257812 182.8125 C 114.257812 192.773438 126.5625 199.804688 143.554688 203.90625 C 150.292969 221.484375 167.285156 234.375 187.5 234.375 C 207.714844 234.375 224.707031 221.484375 231.445312 203.613281 C 248.4375 199.511719 260.742188 192.480469 260.742188 182.519531 C 260.742188 173.730469 247.558594 166.113281 226.171875 161.132812 Z M 187.5 152.34375 C 206.835938 152.34375 222.65625 168.164062 222.65625 187.5 C 222.65625 189.550781 222.363281 191.601562 222.070312 193.652344 C 212.988281 195.410156 201.5625 196.582031 187.5 196.582031 C 173.4375 196.582031 162.011719 195.410156 152.929688 193.652344 C 152.636719 191.894531 152.34375 189.550781 152.34375 187.5 C 152.34375 168.164062 168.164062 152.34375 187.5 152.34375 Z M 125.976562 182.8125 C 126.269531 181.640625 130.371094 178.417969 142.382812 174.902344 C 141.210938 179.003906 140.625 183.105469 140.625 187.5 C 140.625 188.671875 140.625 189.84375 140.917969 191.015625 C 130.664062 187.792969 125.976562 184.570312 125.976562 182.8125 Z M 187.5 222.65625 C 175.195312 222.65625 164.0625 216.210938 157.910156 206.542969 C 167.285156 207.714844 177.539062 208.59375 187.5 208.59375 C 197.460938 208.59375 207.714844 208.007812 217.089844 206.542969 C 210.9375 216.210938 199.804688 222.65625 187.5 222.65625 Z M 234.082031 191.015625 C 234.082031 189.84375 234.375 188.671875 234.375 187.5 C 234.375 183.105469 233.789062 179.003906 232.617188 174.902344 C 244.921875 178.417969 248.730469 181.933594 249.023438 182.8125 C 249.023438 184.277344 244.335938 187.792969 234.082031 191.015625 Z M 234.082031 191.015625 " fill-opacity="1" fill-rule="nonzero"/><path fill="#be50f8" d="M 11.71875 187.5 C 11.71875 155.273438 20.507812 125.390625 35.449219 99.316406 C 31.933594 97.265625 28.710938 94.921875 26.074219 92.285156 C 9.667969 120.117188 0 152.636719 0 187.5 C 0 231.445312 15.234375 272.167969 40.722656 304.101562 C 43.066406 301.171875 46.289062 298.535156 49.511719 296.191406 C 25.78125 266.308594 11.71875 228.515625 11.71875 187.5 Z M 11.71875 187.5 " fill-opacity="1" fill-rule="nonzero"/><path fill="#be50f8" d="M 58.59375 93.75 C 77.929688 93.75 93.75 77.929688 93.75 58.59375 C 93.75 39.257812 77.929688 23.4375 58.59375 23.4375 C 39.257812 23.4375 23.4375 39.257812 23.4375 58.59375 C 23.4375 77.929688 39.257812 93.75 58.59375 93.75 Z M 58.59375 35.15625 C 71.484375 35.15625 82.03125 45.703125 82.03125 58.59375 C 82.03125 71.484375 71.484375 82.03125 58.59375 82.03125 C 45.703125 82.03125 35.15625 71.484375 35.15625 58.59375 C 35.15625 45.703125 45.703125 35.15625 58.59375 35.15625 Z M 58.59375 35.15625 " fill-opacity="1" fill-rule="nonzero"/><path fill="#be50f8" d="M 316.40625 281.25 C 297.070312 281.25 281.25 297.070312 281.25 316.40625 C 281.25 335.742188 297.070312 351.5625 316.40625 351.5625 C 335.742188 351.5625 351.5625 335.742188 351.5625 316.40625 C 351.5625 297.070312 335.742188 281.25 316.40625 281.25 Z M 316.40625 339.84375 C 303.515625 339.84375 292.96875 329.296875 292.96875 316.40625 C 292.96875 303.515625 303.515625 292.96875 316.40625 292.96875 C 329.296875 292.96875 339.84375 303.515625 339.84375 316.40625 C 339.84375 329.296875 329.296875 339.84375 316.40625 339.84375 Z M 316.40625 339.84375 " fill-opacity="1" fill-rule="nonzero"/><path fill="#be50f8" d="M 71.484375 170.214844 C 72.949219 169.921875 74.414062 169.921875 76.171875 169.921875 C 78.515625 169.921875 81.152344 170.214844 83.496094 170.800781 C 89.0625 134.765625 113.085938 104.882812 145.3125 90.820312 C 144.140625 87.011719 143.554688 83.203125 143.554688 79.101562 C 143.554688 79.101562 143.554688 79.101562 143.554688 78.808594 C 105.761719 94.335938 77.636719 128.613281 71.484375 170.214844 Z M 71.484375 170.214844 " fill-opacity="1" fill-rule="nonzero"/><path fill="#be50f8" d="M 213.867188 79.101562 C 213.867188 62.988281 200.683594 49.804688 184.570312 49.804688 C 168.457031 49.804688 155.273438 62.988281 155.273438 79.101562 C 155.273438 95.214844 168.457031 108.398438 184.570312 108.398438 C 200.683594 108.398438 213.867188 95.214844 213.867188 79.101562 Z M 166.992188 79.101562 C 166.992188 69.433594 174.902344 61.523438 184.570312 61.523438 C 194.238281 61.523438 202.148438 69.433594 202.148438 79.101562 C 202.148438 88.769531 194.238281 96.679688 184.570312 96.679688 C 174.902344 96.679688 166.992188 88.769531 166.992188 79.101562 Z M 166.992188 79.101562 " fill-opacity="1" fill-rule="nonzero"/><path fill="#be50f8" d="M 76.171875 228.515625 C 89.0625 228.515625 99.609375 217.96875 99.609375 205.078125 C 99.609375 192.1875 89.0625 181.640625 76.171875 181.640625 C 63.28125 181.640625 52.734375 192.1875 52.734375 205.078125 C 52.734375 217.96875 63.28125 228.515625 76.171875 228.515625 Z M 76.171875 193.359375 C 82.617188 193.359375 87.890625 198.632812 87.890625 205.078125 C 87.890625 211.523438 82.617188 216.796875 76.171875 216.796875 C 69.726562 216.796875 64.453125 211.523438 64.453125 205.078125 C 64.453125 198.632812 69.726562 193.359375 76.171875 193.359375 Z M 76.171875 193.359375 " fill-opacity="1" fill-rule="nonzero"/><path fill="#be50f8" d="M 238.183594 263.671875 C 226.757812 263.671875 217.675781 272.753906 217.675781 284.179688 C 217.675781 295.605469 226.757812 304.6875 238.183594 304.6875 C 249.609375 304.6875 258.691406 295.605469 258.691406 284.179688 C 258.691406 272.753906 249.609375 263.671875 238.183594 263.671875 Z M 238.183594 292.96875 C 233.203125 292.96875 229.394531 289.160156 229.394531 284.179688 C 229.394531 279.199219 233.203125 275.390625 238.183594 275.390625 C 243.164062 275.390625 246.972656 279.199219 246.972656 284.179688 C 246.972656 289.160156 243.164062 292.96875 238.183594 292.96875 Z M 238.183594 292.96875 " fill-opacity="1" fill-rule="nonzero"/><path fill="#be50f8" d="M 316.40625 84.960938 C 329.296875 84.960938 339.84375 74.414062 339.84375 61.523438 C 339.84375 48.632812 329.296875 38.085938 316.40625 38.085938 C 303.515625 38.085938 292.96875 48.632812 292.96875 61.523438 C 292.96875 74.414062 303.515625 84.960938 316.40625 84.960938 Z M 316.40625 49.804688 C 322.851562 49.804688 328.125 55.078125 328.125 61.523438 C 328.125 67.96875 322.851562 73.242188 316.40625 73.242188 C 309.960938 73.242188 304.6875 67.96875 304.6875 61.523438 C 304.6875 55.078125 309.960938 49.804688 316.40625 49.804688 Z M 316.40625 49.804688 " fill-opacity="1" fill-rule="nonzero"/><path fill="#be50f8" d="M 70.3125 301.757812 C 55.664062 301.757812 43.945312 313.476562 43.945312 328.125 C 43.945312 342.773438 55.664062 354.492188 70.3125 354.492188 C 84.960938 354.492188 96.679688 342.773438 96.679688 328.125 C 96.679688 313.476562 84.960938 301.757812 70.3125 301.757812 Z M 70.3125 342.773438 C 62.109375 342.773438 55.664062 336.328125 55.664062 328.125 C 55.664062 319.921875 62.109375 313.476562 70.3125 313.476562 C 78.515625 313.476562 84.960938 319.921875 84.960938 328.125 C 84.960938 336.328125 78.515625 342.773438 70.3125 342.773438 Z M 70.3125 342.773438 " fill-opacity="1" fill-rule="nonzero"/><path fill="#be50f8" d="M 14.0625 19.335938 L 13.476562 22.265625 C 13.476562 22.558594 13.476562 23.144531 14.0625 23.4375 C 14.355469 23.4375 14.648438 23.4375 15.234375 23.4375 L 17.578125 21.972656 L 19.921875 23.4375 C 20.507812 23.4375 20.800781 23.4375 21.09375 23.144531 C 21.386719 22.851562 21.679688 22.558594 21.679688 21.972656 L 21.09375 19.042969 L 23.144531 16.992188 C 23.4375 16.992188 23.4375 16.40625 23.4375 16.113281 C 23.4375 15.820312 22.851562 15.527344 22.558594 15.234375 L 19.921875 14.941406 L 18.457031 12.304688 C 18.457031 12.011719 17.871094 11.71875 17.578125 11.71875 C 17.285156 11.71875 16.699219 12.011719 16.699219 12.304688 L 15.234375 14.941406 L 12.597656 15.234375 C 12.304688 15.527344 12.011719 15.820312 11.71875 16.113281 C 11.71875 16.40625 11.71875 16.992188 12.011719 17.285156 Z M 14.0625 19.335938 " fill-opacity="1" fill-rule="nonzero"/><path fill="#be50f8" d="M 362.402344 355.078125 L 359.765625 354.785156 L 358.59375 352.148438 C 358.300781 351.855469 358.007812 351.5625 357.714844 351.5625 C 357.421875 351.5625 356.835938 351.855469 356.835938 352.148438 L 355.664062 354.785156 L 353.027344 355.078125 C 352.734375 355.078125 352.148438 355.371094 352.148438 355.957031 C 352.148438 356.25 352.148438 356.835938 352.441406 357.128906 L 354.492188 359.179688 L 353.90625 362.109375 C 353.90625 362.402344 353.90625 362.988281 354.492188 363.28125 C 354.785156 363.574219 355.371094 363.574219 355.664062 363.28125 L 358.007812 361.816406 L 360.351562 363.28125 C 360.644531 363.574219 361.230469 363.574219 361.523438 363.28125 C 361.816406 362.988281 362.109375 362.695312 362.109375 362.109375 L 361.523438 359.179688 L 363.574219 357.128906 C 363.867188 356.835938 363.867188 356.25 363.867188 355.957031 C 362.988281 355.664062 362.695312 355.371094 362.402344 355.078125 Z M 362.402344 355.078125 " fill-opacity="1" fill-rule="nonzero"/><path fill="#be50f8" d="M 28.417969 355.078125 L 25.78125 354.785156 L 24.609375 352.148438 C 24.316406 351.855469 23.730469 351.5625 23.4375 351.5625 C 23.144531 351.5625 22.558594 351.855469 22.558594 352.148438 L 21.386719 354.785156 L 18.75 355.078125 C 18.457031 355.078125 17.871094 355.371094 17.871094 355.957031 C 17.871094 356.25 17.871094 356.835938 18.164062 357.128906 L 20.214844 359.179688 L 19.628906 362.109375 C 19.628906 362.402344 19.628906 362.988281 20.214844 363.28125 C 20.507812 363.574219 21.09375 363.574219 21.386719 363.28125 L 23.730469 361.816406 L 26.074219 363.28125 C 26.367188 363.574219 26.953125 363.574219 27.246094 363.28125 C 27.539062 362.988281 27.832031 362.695312 27.832031 362.109375 L 27.246094 359.179688 L 29.296875 357.128906 C 29.589844 356.835938 29.589844 356.25 29.589844 355.957031 C 29.003906 355.664062 28.710938 355.371094 28.417969 355.078125 Z M 28.417969 355.078125 " fill-opacity="1" fill-rule="nonzero"/><path fill="#be50f8" d="M 146.484375 250.488281 C 146.484375 250.195312 145.898438 249.902344 145.605469 249.609375 L 142.96875 249.316406 L 141.796875 246.679688 C 141.503906 246.386719 140.917969 246.09375 140.625 246.09375 C 140.332031 246.09375 139.746094 246.386719 139.746094 246.679688 L 138.574219 249.316406 L 135.9375 249.609375 C 135.644531 249.609375 135.058594 249.902344 135.058594 250.488281 C 135.058594 250.78125 135.058594 251.367188 135.351562 251.660156 L 137.402344 253.710938 L 136.816406 256.640625 C 136.816406 256.933594 136.816406 257.519531 137.402344 257.8125 C 137.695312 258.105469 138.28125 258.105469 138.574219 257.8125 L 140.917969 256.347656 L 143.261719 257.8125 C 143.554688 258.105469 144.140625 258.105469 144.433594 257.8125 C 144.726562 257.519531 145.019531 257.226562 145.019531 256.640625 L 144.433594 253.710938 L 146.484375 251.660156 C 146.484375 251.367188 146.484375 250.78125 146.484375 250.488281 Z M 146.484375 250.488281 " fill-opacity="1" fill-rule="nonzero"/><path fill="#be50f8" d="M 140.625 130.371094 C 140.625 130.078125 140.039062 129.785156 139.746094 129.492188 L 137.109375 129.199219 L 135.9375 126.5625 C 135.644531 126.269531 135.058594 125.976562 134.765625 125.976562 C 134.472656 125.976562 133.886719 126.269531 133.886719 126.5625 L 132.714844 129.199219 L 130.078125 129.492188 C 129.785156 129.492188 129.199219 129.785156 129.199219 130.371094 C 129.199219 130.664062 129.199219 131.25 129.492188 131.542969 L 131.542969 133.59375 L 130.957031 136.523438 C 130.957031 136.816406 130.957031 137.402344 131.542969 137.695312 C 131.835938 137.988281 132.421875 137.988281 132.714844 137.695312 L 135.058594 136.230469 L 137.402344 137.695312 C 137.695312 137.988281 138.28125 137.988281 138.574219 137.695312 C 138.867188 137.402344 139.160156 137.109375 139.160156 136.523438 L 138.574219 133.59375 L 140.625 131.542969 C 140.625 131.25 140.625 130.664062 140.625 130.371094 Z M 140.625 130.371094 " fill-opacity="1" fill-rule="nonzero"/><path fill="#be50f8" d="M 187.5 363.28125 C 157.910156 363.28125 130.078125 355.957031 105.46875 342.773438 C 104.003906 346.289062 101.953125 349.804688 99.316406 352.734375 C 125.683594 366.796875 155.566406 375 187.5 375 C 222.363281 375 254.882812 365.332031 282.714844 348.925781 C 280.078125 345.996094 277.734375 343.066406 275.683594 339.550781 C 249.609375 354.492188 219.726562 363.28125 187.5 363.28125 Z M 187.5 363.28125 " fill-opacity="1" fill-rule="nonzero"/><path fill="#be50f8" d="M 187.5 11.71875 C 224.414062 11.71875 258.691406 23.144531 286.816406 42.480469 C 288.867188 39.257812 291.503906 36.328125 294.726562 33.691406 C 264.257812 12.597656 227.34375 0 187.5 0 C 152.636719 0 120.117188 9.667969 92.285156 26.074219 C 94.921875 29.003906 97.265625 31.933594 99.316406 35.449219 C 125.390625 20.507812 155.273438 11.71875 187.5 11.71875 Z M 187.5 11.71875 " fill-opacity="1" fill-rule="nonzero"/><path fill="#be50f8" d="M 363.28125 187.5 C 363.28125 219.726562 354.492188 249.609375 339.550781 275.683594 C 343.066406 277.734375 346.289062 280.078125 348.925781 282.714844 C 365.332031 254.882812 375 222.363281 375 187.5 C 375 149.121094 363.28125 113.378906 343.652344 83.789062 C 341.015625 86.71875 338.085938 89.355469 334.570312 91.40625 C 352.734375 119.238281 363.28125 152.050781 363.28125 187.5 Z M 363.28125 187.5 " fill-opacity="1" fill-rule="nonzero"/><path fill="#be50f8" d="M 205.957031 291.210938 C 200.097656 292.382812 193.652344 292.96875 187.5 292.96875 C 146.777344 292.96875 111.035156 269.53125 93.75 235.546875 C 90.234375 237.597656 86.71875 238.769531 82.617188 239.648438 C 101.660156 278.027344 141.503906 304.6875 187.5 304.6875 C 195.703125 304.6875 203.90625 303.808594 211.816406 302.050781 C 209.179688 299.121094 207.128906 295.3125 205.957031 291.210938 Z M 205.957031 291.210938 " fill-opacity="1" fill-rule="nonzero"/><path fill="#be50f8" d="M 267.773438 272.753906 C 290.332031 251.367188 304.6875 221.191406 304.6875 187.5 C 304.6875 136.230469 271.582031 92.578125 225.585938 76.757812 C 225.585938 77.636719 225.585938 78.515625 225.585938 79.101562 C 225.585938 82.324219 225.292969 85.546875 224.414062 88.769531 C 264.550781 103.710938 292.96875 142.382812 292.96875 187.5 C 292.96875 216.503906 281.25 242.871094 262.207031 261.914062 C 264.550781 265.136719 266.601562 268.945312 267.773438 272.753906 Z M 267.773438 272.753906 " fill-opacity="1" fill-rule="nonzero"/></svg>