<svg xmlns="http://www.w3.org/2000/svg" xmlns:xlink="http://www.w3.org/1999/xlink" width="500" zoomAndPan="magnify" viewBox="0 0 375 374.999991" height="500" preserveAspectRatio="xMidYMid meet" version="1.2"><defs><clipPath id="c87b2e2c20"><path d="M 91.859375 33 L 130 33 L 130 103 L 91.859375 103 Z M 91.859375 33 "/></clipPath><clipPath id="f397062dd8"><path d="M 137 48 L 175.007812 48 L 175.007812 118 L 137 118 Z M 137 48 "/></clipPath><clipPath id="fc0ac29b49"><path d="M 94 88 L 130 88 L 130 139.429688 L 94 139.429688 Z M 94 88 "/></clipPath><clipPath id="848f4393dc"><path d="M 137 11.316406 L 173 11.316406 L 173 63 L 137 63 Z M 137 11.316406 "/></clipPath><clipPath id="bdf52ff30d"><path d="M 57 89 L 186 89 L 186 155.601562 L 57 155.601562 Z M 57 89 "/></clipPath><clipPath id="d409633377"><path d="M 56 0.320312 L 211 0.320312 L 211 115 L 56 115 Z M 56 0.320312 "/></clipPath><clipPath id="1a49e11703"><path d="M 0.238281 34 L 267.601562 34 L 267.601562 130 L 0.238281 130 Z M 0.238281 34 "/></clipPath><clipPath id="b518629107"><rect x="0" width="268" y="0" height="156"/></clipPath></defs><g id="836c9c2804"><g transform="matrix(1,0,0,1,54,112)"><g clip-path="url(#b518629107)"><g clip-rule="nonzero" clip-path="url(#c87b2e2c20)"><path style=" stroke:none;fill-rule:nonzero;fill:#8c52ff;fill-opacity:1;" d="M 91.875 102.375 L 107.835938 86.410156 L 129.179688 65.066406 L 129.179688 33.144531 L 91.875 70.449219 Z M 91.875 102.375 "/></g><g clip-rule="nonzero" clip-path="url(#f397062dd8)"><path style=" stroke:none;fill-rule:nonzero;fill:#8c52ff;fill-opacity:1;" d="M 159.15625 64.585938 L 137.8125 85.929688 L 137.8125 117.851562 L 175.117188 80.546875 L 175.117188 48.621094 Z M 159.15625 64.585938 "/></g><g clip-rule="nonzero" clip-path="url(#fc0ac29b49)"><path style=" stroke:none;fill-rule:nonzero;fill:#5e17eb;fill-opacity:1;" d="M 94.414062 104.914062 L 129.183594 139.679688 L 129.183594 107.757812 L 110.375 88.953125 Z M 94.414062 104.914062 "/></g><g clip-rule="nonzero" clip-path="url(#848f4393dc)"><path style=" stroke:none;fill-rule:nonzero;fill:#5e17eb;fill-opacity:1;" d="M 137.8125 11.316406 L 137.8125 43.238281 L 156.613281 62.042969 L 172.578125 46.082031 Z M 137.8125 11.316406 "/></g><g clip-rule="nonzero" clip-path="url(#bdf52ff30d)"><path style=" stroke:none;fill-rule:nonzero;fill:#8c52ff;fill-opacity:1;" d="M 133.214844 155.457031 C 130.988281 155.457031 128.765625 155.359375 126.546875 155.167969 C 124.328125 154.976562 122.125 154.6875 119.929688 154.304688 C 117.738281 153.921875 115.566406 153.445312 113.414062 152.875 C 111.261719 152.304688 109.136719 151.644531 107.042969 150.890625 C 104.945312 150.136719 102.886719 149.292969 100.867188 148.363281 C 98.84375 147.429688 96.863281 146.414062 94.929688 145.3125 C 92.996094 144.210938 91.113281 143.027344 89.28125 141.761719 C 87.449219 140.496094 85.671875 139.15625 83.957031 137.738281 C 82.238281 136.320312 80.585938 134.832031 79 133.269531 C 77.410156 131.710938 75.894531 130.082031 74.445312 128.390625 C 72.996094 126.699219 71.625 124.949219 70.328125 123.140625 C 69.03125 121.332031 67.816406 119.46875 66.679688 117.554688 C 65.542969 115.636719 64.492188 113.679688 63.523438 111.671875 C 62.558594 109.667969 61.679688 107.625 60.886719 105.542969 C 60.097656 103.460938 59.398438 101.347656 58.789062 99.207031 C 58.183594 97.066406 57.667969 94.902344 57.246094 92.714844 C 57.183594 92.40625 57.1875 92.097656 57.25 91.789062 C 57.308594 91.480469 57.429688 91.195312 57.605469 90.933594 C 57.78125 90.671875 58 90.453125 58.261719 90.28125 C 58.523438 90.105469 58.8125 89.988281 59.121094 89.929688 C 59.429688 89.871094 59.738281 89.871094 60.046875 89.933594 C 60.355469 89.996094 60.640625 90.113281 60.902344 90.292969 C 61.160156 90.46875 61.378906 90.6875 61.554688 90.949219 C 61.726562 91.210938 61.84375 91.496094 61.902344 91.808594 C 62.511719 94.957031 63.328125 98.050781 64.347656 101.09375 C 65.367188 104.132812 66.582031 107.09375 67.992188 109.976562 C 69.402344 112.855469 70.996094 115.628906 72.773438 118.300781 C 74.550781 120.96875 76.5 123.511719 78.613281 125.921875 C 80.726562 128.335938 82.992188 130.597656 85.40625 132.707031 C 87.820312 134.820312 90.359375 136.765625 93.03125 138.542969 C 95.703125 140.316406 98.480469 141.910156 101.359375 143.316406 C 104.242188 144.726562 107.203125 145.9375 110.246094 146.957031 C 113.289062 147.972656 116.382812 148.785156 119.53125 149.390625 C 122.683594 150 125.859375 150.394531 129.058594 150.582031 C 132.261719 150.769531 135.460938 150.746094 138.660156 150.507812 C 141.859375 150.269531 145.027344 149.824219 148.167969 149.167969 C 151.308594 148.511719 154.390625 147.652344 157.417969 146.589844 C 160.441406 145.523438 163.386719 144.265625 166.246094 142.8125 C 169.105469 141.359375 171.855469 139.722656 174.496094 137.90625 C 177.140625 136.089844 179.652344 134.105469 182.03125 131.957031 C 182.269531 131.761719 182.53125 131.617188 182.824219 131.523438 C 183.113281 131.429688 183.414062 131.394531 183.71875 131.417969 C 184.023438 131.441406 184.3125 131.519531 184.585938 131.652344 C 184.863281 131.785156 185.101562 131.96875 185.304688 132.195312 C 185.511719 132.421875 185.664062 132.679688 185.769531 132.964844 C 185.875 133.253906 185.925781 133.550781 185.914062 133.855469 C 185.90625 134.160156 185.839844 134.453125 185.71875 134.734375 C 185.59375 135.015625 185.425781 135.261719 185.207031 135.476562 C 181.671875 138.664062 177.875 141.5 173.816406 143.992188 C 169.757812 146.480469 165.507812 148.578125 161.0625 150.289062 C 156.621094 151.996094 152.058594 153.285156 147.375 154.152344 C 142.695312 155.023438 137.976562 155.457031 133.214844 155.457031 Z M 133.214844 155.457031 "/></g><g clip-rule="nonzero" clip-path="url(#d409633377)"><path style=" stroke:none;fill-rule:nonzero;fill:#8c52ff;fill-opacity:1;" d="M 199.933594 114.925781 C 199.730469 114.925781 199.53125 114.898438 199.332031 114.847656 C 199.136719 114.796875 198.949219 114.71875 198.773438 114.621094 C 198.597656 114.519531 198.433594 114.402344 198.289062 114.257812 C 198.144531 114.117188 198.015625 113.960938 197.910156 113.789062 C 197.804688 113.613281 197.722656 113.429688 197.664062 113.234375 C 197.609375 113.042969 197.574219 112.84375 197.566406 112.640625 C 197.558594 112.4375 197.578125 112.234375 197.621094 112.039062 C 197.667969 111.839844 197.734375 111.652344 197.828125 111.46875 C 199.558594 108.113281 201.023438 104.640625 202.222656 101.058594 C 202.609375 99.929688 202.96875 98.789062 203.296875 97.640625 C 203.625 96.492188 203.925781 95.339844 204.199219 94.175781 C 204.46875 93.011719 204.714844 91.84375 204.929688 90.667969 C 205.144531 89.496094 205.328125 88.316406 205.484375 87.132812 C 205.640625 85.949219 205.769531 84.761719 205.867188 83.570312 C 205.964844 82.382812 206.03125 81.1875 206.070312 79.996094 C 206.113281 78.800781 206.121094 77.609375 206.101562 76.414062 C 206.082031 75.21875 206.03125 74.027344 205.953125 72.835938 C 205.875 71.644531 205.769531 70.457031 205.632812 69.269531 C 205.496094 68.082031 205.328125 66.902344 205.132812 65.722656 C 204.9375 64.542969 204.714844 63.371094 204.460938 62.207031 C 204.207031 61.039062 203.925781 59.878906 203.617188 58.726562 C 203.304688 57.570312 202.96875 56.425781 202.601562 55.289062 C 202.234375 54.152344 201.839844 53.027344 201.417969 51.910156 C 200.996094 50.792969 200.546875 49.6875 200.070312 48.59375 C 199.59375 47.496094 199.089844 46.414062 198.558594 45.34375 C 198.03125 44.273438 197.472656 43.21875 196.890625 42.175781 C 196.308594 41.132812 195.703125 40.105469 195.070312 39.09375 C 194.4375 38.082031 193.78125 37.082031 193.097656 36.101562 C 192.414062 35.121094 191.710938 34.160156 190.980469 33.214844 C 190.25 32.269531 189.5 31.34375 188.726562 30.433594 C 187.949219 29.523438 187.152344 28.636719 186.335938 27.765625 C 185.515625 26.898438 184.675781 26.050781 183.816406 25.222656 C 182.953125 24.394531 182.074219 23.585938 181.171875 22.800781 C 180.273438 22.019531 179.355469 21.257812 178.417969 20.515625 C 177.480469 19.777344 176.523438 19.0625 175.550781 18.371094 C 174.578125 17.679688 173.585938 17.011719 172.582031 16.367188 C 171.574219 15.722656 170.554688 15.105469 169.515625 14.511719 C 168.480469 13.921875 167.429688 13.351562 166.367188 12.8125 C 165.300781 12.269531 164.222656 11.753906 163.132812 11.269531 C 162.042969 10.78125 160.945312 10.320312 159.832031 9.882812 C 158.71875 9.449219 157.597656 9.042969 156.464844 8.667969 C 155.332031 8.289062 154.191406 7.9375 153.039062 7.613281 C 151.890625 7.292969 150.734375 7 149.570312 6.734375 C 148.40625 6.46875 147.234375 6.230469 146.058594 6.023438 C 144.882812 5.816406 143.703125 5.636719 142.515625 5.488281 C 141.332031 5.339844 140.144531 5.21875 138.953125 5.128906 C 137.761719 5.039062 136.570312 4.976562 135.378906 4.945312 C 134.183594 4.910156 132.988281 4.910156 131.796875 4.9375 C 130.601562 4.960938 129.410156 5.019531 128.21875 5.105469 C 127.027344 5.1875 125.839844 5.304688 124.652344 5.449219 C 123.46875 5.59375 122.289062 5.765625 121.109375 5.96875 C 119.933594 6.167969 118.761719 6.402344 117.597656 6.660156 C 116.433594 6.921875 115.273438 7.210938 114.121094 7.527344 C 112.972656 7.84375 111.828125 8.1875 110.695312 8.5625 C 109.558594 8.933594 108.433594 9.335938 107.320312 9.765625 C 106.207031 10.195312 105.101562 10.648438 104.011719 11.132812 C 102.917969 11.617188 101.839844 12.125 100.773438 12.664062 C 99.707031 13.199219 98.652344 13.761719 97.613281 14.347656 C 96.574219 14.9375 95.550781 15.550781 94.542969 16.191406 C 93.53125 16.828125 92.539062 17.492188 91.5625 18.179688 C 90.585938 18.867188 89.628906 19.578125 88.6875 20.3125 C 87.746094 21.046875 86.824219 21.804688 85.917969 22.585938 C 85.015625 23.367188 84.132812 24.167969 83.265625 24.992188 C 82.402344 25.816406 81.558594 26.660156 80.738281 27.527344 C 79.914062 28.390625 79.113281 29.277344 78.332031 30.183594 C 77.554688 31.085938 76.796875 32.011719 76.066406 32.953125 C 75.332031 33.894531 74.621094 34.855469 73.933594 35.832031 C 73.25 36.808594 72.585938 37.804688 71.949219 38.8125 C 71.3125 39.824219 70.699219 40.847656 70.113281 41.886719 C 69.527344 42.925781 68.964844 43.980469 68.429688 45.050781 C 67.894531 46.117188 67.386719 47.195312 66.90625 48.289062 C 66.425781 49.382812 65.96875 50.484375 65.542969 51.601562 C 65.117188 52.714844 64.714844 53.839844 64.34375 54.976562 C 63.148438 58.558594 62.234375 62.214844 61.59375 65.9375 C 61.53125 66.238281 61.417969 66.519531 61.246094 66.777344 C 61.078125 67.035156 60.867188 67.25 60.609375 67.425781 C 60.355469 67.597656 60.078125 67.71875 59.777344 67.785156 C 59.476562 67.851562 59.175781 67.859375 58.871094 67.808594 C 58.566406 67.753906 58.285156 67.648438 58.019531 67.484375 C 57.757812 67.324219 57.535156 67.117188 57.355469 66.871094 C 57.171875 66.621094 57.042969 66.347656 56.96875 66.046875 C 56.894531 65.75 56.878906 65.445312 56.917969 65.140625 C 57.601562 61.179688 58.578125 57.289062 59.851562 53.476562 C 62.363281 45.9375 65.949219 38.953125 70.609375 32.519531 C 71.722656 30.988281 72.890625 29.5 74.113281 28.054688 C 75.335938 26.605469 76.609375 25.207031 77.933594 23.855469 C 79.257812 22.503906 80.628906 21.199219 82.050781 19.949219 C 83.46875 18.695312 84.933594 17.496094 86.441406 16.351562 C 87.949219 15.207031 89.496094 14.121094 91.085938 13.089844 C 92.671875 12.058594 94.296875 11.085938 95.953125 10.175781 C 97.613281 9.261719 99.304688 8.410156 101.023438 7.625 C 102.746094 6.835938 104.492188 6.109375 106.269531 5.453125 C 108.042969 4.792969 109.839844 4.195312 111.65625 3.667969 C 113.472656 3.140625 115.308594 2.679688 117.160156 2.285156 C 119.011719 1.890625 120.875 1.566406 122.753906 1.308594 C 124.628906 1.050781 126.511719 0.863281 128.398438 0.746094 C 130.289062 0.625 132.179688 0.574219 134.074219 0.59375 C 135.964844 0.613281 137.855469 0.703125 139.742188 0.863281 C 141.628906 1.019531 143.507812 1.246094 145.378906 1.542969 C 147.246094 1.839844 149.105469 2.203125 150.945312 2.632812 C 152.789062 3.066406 154.617188 3.566406 156.421875 4.132812 C 158.230469 4.695312 160.011719 5.328125 161.773438 6.023438 C 163.53125 6.722656 165.265625 7.480469 166.96875 8.304688 C 168.675781 9.128906 170.347656 10.015625 171.988281 10.960938 C 173.625 11.90625 175.230469 12.910156 176.796875 13.976562 C 178.359375 15.039062 179.886719 16.160156 181.371094 17.335938 C 182.855469 18.507812 184.292969 19.738281 185.6875 21.019531 C 187.082031 22.300781 188.425781 23.628906 189.722656 25.011719 C 191.019531 26.390625 192.261719 27.816406 193.453125 29.285156 C 194.644531 30.757812 195.78125 32.269531 196.863281 33.824219 C 197.945312 35.378906 198.964844 36.96875 199.929688 38.601562 C 200.894531 40.230469 201.796875 41.890625 202.640625 43.585938 C 203.480469 45.28125 204.261719 47.007812 204.976562 48.757812 C 205.691406 50.511719 206.34375 52.289062 206.929688 54.089844 C 207.515625 55.890625 208.035156 57.707031 208.484375 59.546875 C 208.9375 61.386719 209.324219 63.238281 209.640625 65.105469 C 210.710938 71.375 211 77.679688 210.503906 84.019531 C 210.007812 90.363281 208.746094 96.546875 206.714844 102.574219 C 205.441406 106.390625 203.882812 110.085938 202.042969 113.660156 C 201.835938 114.050781 201.542969 114.359375 201.164062 114.589844 C 200.785156 114.816406 200.375 114.929688 199.933594 114.925781 Z M 199.933594 114.925781 "/></g><g clip-rule="nonzero" clip-path="url(#1a49e11703)"><path style=" stroke:none;fill-rule:nonzero;fill:#8c52ff;fill-opacity:1;" d="M 226.570312 75.621094 C 232.832031 79.050781 238.90625 82.792969 244.785156 86.839844 C 250.621094 90.953125 256.3125 95.386719 261.105469 100.855469 C 263.457031 103.613281 265.664062 106.644531 266.800781 110.351562 C 267.410156 112.285156 267.519531 114.242188 267.121094 116.230469 C 266.898438 117.238281 266.53125 118.191406 266.019531 119.085938 C 265.503906 119.964844 264.894531 120.765625 264.183594 121.492188 C 261.320312 124.300781 257.71875 125.765625 254.199219 126.832031 C 250.664062 127.828125 247.070312 128.511719 243.414062 128.878906 C 236.203125 129.574219 228.984375 129.714844 221.753906 129.300781 C 214.5625 128.949219 207.40625 128.230469 200.285156 127.300781 C 186.054688 125.367188 171.957031 122.707031 158 119.316406 C 144.046875 115.972656 130.246094 112.070312 116.589844 107.613281 C 102.933594 103.179688 89.433594 98.226562 76.144531 92.65625 C 62.761719 87.117188 49.757812 80.792969 37.132812 73.691406 C 30.710938 70.066406 24.519531 66.085938 18.554688 61.742188 C 15.488281 59.5 12.550781 57.101562 9.742188 54.542969 C 6.722656 51.832031 4.015625 48.839844 1.613281 45.570312 C 1.355469 45.199219 1.140625 44.804688 0.960938 44.390625 C 0.78125 43.976562 0.644531 43.550781 0.550781 43.109375 C 0.453125 42.671875 0.402344 42.226562 0.390625 41.773438 C 0.382812 41.324219 0.414062 40.878906 0.492188 40.433594 C 0.570312 39.988281 0.6875 39.558594 0.851562 39.136719 C 1.011719 38.714844 1.210938 38.3125 1.449219 37.933594 C 1.6875 37.550781 1.960938 37.195312 2.269531 36.867188 C 2.578125 36.535156 2.914062 36.238281 3.277344 35.976562 C 3.644531 35.710938 4.03125 35.484375 4.441406 35.296875 C 4.847656 35.109375 5.273438 34.960938 5.710938 34.855469 C 6.148438 34.746094 6.589844 34.683594 7.042969 34.664062 C 7.492188 34.640625 7.941406 34.664062 8.386719 34.730469 C 8.832031 34.796875 9.265625 34.90625 9.691406 35.058594 C 10.113281 35.207031 10.519531 35.398438 10.910156 35.625 C 11.296875 35.855469 11.660156 36.121094 11.996094 36.421875 C 12.332031 36.71875 12.636719 37.046875 12.910156 37.40625 L 13.0625 37.632812 L 13.105469 37.695312 C 14.847656 40.246094 16.824219 42.59375 19.042969 44.742188 C 21.417969 47.078125 23.910156 49.28125 26.519531 51.347656 C 31.921875 55.617188 37.550781 59.558594 43.40625 63.179688 C 55.339844 70.546875 67.671875 77.171875 80.402344 83.058594 C 93.15625 89.019531 106.21875 94.410156 119.472656 99.308594 C 132.722656 104.207031 146.179688 108.617188 159.785156 112.464844 C 173.398438 116.351562 187.179688 119.527344 201.125 121.992188 C 208.066406 123.195312 215.078125 124.171875 222.089844 124.796875 C 229.085938 125.476562 236.09375 125.621094 243.109375 125.230469 C 246.570312 125.027344 249.988281 124.523438 253.359375 123.71875 C 256.652344 122.878906 259.898438 121.628906 262.234375 119.492188 C 263.394531 118.441406 264.1875 117.160156 264.605469 115.652344 C 264.972656 114.09375 264.941406 112.542969 264.515625 111 C 263.691406 107.792969 261.761719 104.835938 259.617188 102.121094 C 255.203125 96.699219 249.734375 92.046875 244.128906 87.746094 C 238.433594 83.488281 232.535156 79.527344 226.4375 75.867188 C 226.371094 75.820312 226.355469 75.757812 226.394531 75.6875 C 226.429688 75.601562 226.488281 75.578125 226.570312 75.621094 Z M 226.570312 75.621094 "/></g></g></g></g></svg>