<?xml version="1.0" standalone="no"?>
<!DOCTYPE svg PUBLIC "-//W3C//DTD SVG 20010904//EN"
 "http://www.w3.org/TR/2001/REC-SVG-20010904/DTD/svg10.dtd">
<svg version="1.0" xmlns="http://www.w3.org/2000/svg"
 width="1564.000000pt" height="774.000000pt" viewBox="0 0 1564.000000 774.000000"
 preserveAspectRatio="xMidYMid meet">

<g transform="translate(0.000000,774.000000) scale(0.100000,-0.100000)"
fill="#000000" stroke="none">
<path d="M0 3870 l0 -3870 7820 0 7820 0 0 3870 0 3870 -7820 0 -7820 0 0
-3870z m1741 2389 c16 -16 19 -27 13 -51 -18 -86 -128 -233 -309 -413 -180
-181 -327 -291 -413 -309 -44 -10 -76 22 -66 66 7 32 43 104 76 148 17 23 17
28 2 75 -82 264 156 502 421 421 l49 -15 51 32 c106 69 143 79 176 46z m2197
-346 l-3 -178 -32 -3 c-19 -2 -33 1 -33 8 0 7 -6 8 -19 0 -35 -18 -86 -12
-111 14 -47 51 -44 171 6 214 23 20 35 23 71 19 l43 -5 0 54 0 54 40 0 40 0
-2 -177z m-1528 141 c63 -38 91 -155 56 -238 -24 -57 -67 -79 -163 -84 l-83
-5 0 178 0 178 80 -6 c48 -4 93 -13 110 -23z m848 -6 l3 -27 -78 -3 -78 -3 0
-40 0 -40 68 -3 c67 -3 67 -3 67 -32 l0 -30 -70 0 -70 0 0 -70 0 -70 -35 0
-35 0 0 168 c0 93 3 172 7 176 4 3 54 5 112 4 l106 -3 3 -27z m8492 -36 c0 -4
-10 -12 -22 -17 -30 -14 -35 -35 -9 -42 27 -7 27 -19 1 -26 -18 -5 -20 -14
-20 -76 0 -56 -3 -71 -15 -71 -12 0 -15 15 -15 74 0 50 -4 76 -12 79 -9 4 -10
8 -2 14 6 4 15 21 21 38 11 35 73 58 73 27z m-2880 -31 l0 -39 45 6 c44 5 45
4 61 -33 18 -44 12 -94 -14 -118 -12 -11 -35 -16 -70 -15 l-52 1 0 119 c0 98
3 118 15 118 11 0 15 -11 15 -39z m3008 27 c-6 -16 -36 -34 -44 -25 -9 9 15
37 33 37 8 0 13 -5 11 -12z m112 -108 c0 -100 -2 -120 -15 -120 -12 0 -15 20
-15 120 0 100 3 120 15 120 13 0 15 -20 15 -120z m-5300 60 l0 -50 55 0 55 0
0 50 c0 38 4 50 15 50 12 0 15 -19 15 -115 0 -96 -3 -115 -15 -115 -12 0 -15
13 -15 55 l0 55 -55 0 -55 0 0 -55 c0 -42 -3 -55 -15 -55 -12 0 -15 19 -15
115 0 96 3 115 15 115 11 0 15 -12 15 -50z m1919 24 c38 -48 16 -63 -25 -18
-18 19 -30 24 -47 19 -55 -17 -47 -47 20 -76 27 -11 54 -27 61 -36 51 -68 -71
-131 -133 -68 -14 13 -25 29 -25 35 0 18 27 11 42 -11 16 -25 63 -29 85 -6 21
21 9 35 -52 62 -96 43 -85 125 16 125 29 0 43 -6 58 -26z m1081 11 c0 -8 -7
-15 -15 -15 -8 0 -15 7 -15 15 0 8 7 15 15 15 8 0 15 -7 15 -15z m1435 -10
c49 -48 19 -105 -61 -114 l-49 -6 -3 -42 c-2 -29 -8 -43 -18 -43 -11 0 -14 21
-14 115 l0 115 60 0 c51 0 65 -4 85 -25z m486 10 c-1 -15 -24 -12 -29 3 -3 9
2 13 12 10 10 -1 17 -7 17 -13z m450 0 c-1 -15 -24 -12 -29 3 -3 9 2 13 12 10
10 -1 17 -7 17 -13z m1336 -7 c23 -22 31 -48 13 -48 -5 0 -20 11 -34 25 -31
31 -41 31 -71 0 -35 -34 -35 -106 -1 -140 27 -27 60 -24 79 6 13 21 37 26 37
7 0 -26 -43 -58 -79 -58 -61 1 -91 38 -91 115 0 76 30 114 89 115 22 0 43 -8
58 -22z m-11277 -15 c32 -22 38 -30 50 -75 14 -49 -2 -112 -37 -144 -32 -29
-100 -33 -144 -7 -69 41 -70 183 -1 226 35 21 101 22 132 0z m591 -11 c24 -21
32 -38 36 -75 l6 -47 -76 0 c-42 0 -78 -4 -81 -8 -7 -11 5 -27 32 -41 18 -10
29 -9 54 3 23 12 34 13 44 5 56 -46 -87 -95 -152 -53 -71 47 -72 179 -2 228
37 26 103 21 139 -12z m144 -47 c11 -41 22 -75 25 -75 4 0 16 33 27 73 l19 72
38 3 c29 3 37 0 34 -10 -3 -7 -23 -66 -44 -131 l-39 -118 -33 3 c-34 3 -35 4
-72 109 -59 165 -57 149 -12 149 l39 0 18 -75z m498 63 c4 -10 7 -10 18 0 7 6
23 12 36 12 20 0 23 -5 23 -36 0 -19 -4 -33 -9 -30 -5 4 -21 2 -35 -4 -24 -9
-25 -13 -28 -97 l-3 -88 -35 0 -35 0 -3 114 c-1 63 0 121 2 128 7 17 63 17 69
1z m280 -8 c25 -20 47 -73 47 -112 0 -16 -10 -18 -80 -18 -44 0 -80 -2 -80 -4
0 -40 50 -63 93 -41 22 11 33 12 43 4 37 -31 -14 -69 -92 -69 -39 0 -51 5 -80
34 -31 31 -34 39 -34 96 0 57 3 65 34 96 29 29 41 34 79 34 29 0 53 -7 70 -20z
m7887 0 c0 -11 7 -20 15 -20 8 0 15 -4 15 -10 0 -5 -7 -10 -15 -10 -13 0 -15
-11 -13 -62 2 -44 7 -62 16 -60 6 1 12 -5 12 -14 0 -11 -8 -14 -27 -12 -27 3
-28 5 -31 68 -2 47 -7 69 -20 78 -16 12 -16 14 1 23 9 6 17 17 17 24 0 8 7 15
15 15 8 0 15 -9 15 -20z m2340 0 c0 -11 7 -20 15 -20 8 0 15 -4 15 -10 0 -5
-7 -10 -15 -10 -13 0 -15 -11 -13 -62 2 -44 7 -62 16 -60 6 1 12 -5 12 -13 0
-18 -31 -20 -48 -3 -7 7 -12 39 -12 75 0 49 -3 63 -15 63 -8 0 -15 5 -15 10 0
6 7 10 15 10 8 0 15 9 15 20 0 11 7 20 15 20 8 0 15 -9 15 -20z m280 0 c0 -11
7 -20 15 -20 8 0 15 -4 15 -10 0 -5 -7 -10 -15 -10 -13 0 -15 -11 -13 -62 2
-44 7 -62 16 -60 6 1 12 -5 12 -14 0 -11 -8 -14 -27 -12 -27 3 -28 5 -31 68
-2 47 -7 69 -20 78 -16 12 -16 14 1 23 9 6 17 17 17 24 0 8 7 15 15 15 8 0 15
-9 15 -20z m-12448 -84 c1 -115 -55 -223 -147 -284 -47 -31 -164 -65 -200 -57
-83 17 -82 9 -3 77 86 73 236 225 293 296 46 58 56 52 57 -32z m5321 22 c43
-87 -42 -167 -114 -109 -19 15 -24 29 -24 64 0 62 25 89 79 85 36 -3 43 -7 59
-40z m162 32 c4 -7 13 -7 25 0 32 17 78 12 90 -9 5 -11 10 -49 10 -85 0 -52
-3 -66 -15 -66 -12 0 -15 14 -15 64 0 46 -4 67 -16 77 -29 24 -48 -1 -54 -71
-6 -80 -30 -96 -30 -21 0 65 -14 101 -39 101 -28 0 -41 -30 -41 -94 0 -43 -3
-56 -15 -56 -12 0 -15 16 -15 84 l0 83 54 2 c30 0 58 -4 61 -9z m289 -12 c9
-12 16 -33 16 -45 0 -21 -4 -23 -55 -23 -60 0 -73 -16 -34 -44 16 -11 28 -12
51 -4 35 12 45 6 23 -16 -23 -22 -77 -20 -103 4 -30 28 -31 101 -2 130 28 28
84 27 104 -2z m1322 1 c29 -32 26 -105 -5 -130 -46 -37 -104 -20 -120 37 -10
36 -2 73 21 101 17 21 82 16 104 -8z m324 11 c0 -5 -9 -12 -21 -15 -25 -8 -39
-43 -39 -101 0 -32 -4 -44 -15 -44 -12 0 -15 16 -15 84 l0 83 45 1 c25 1 45
-3 45 -8z m134 -6 c9 -8 16 -21 16 -29 0 -7 3 -20 6 -29 5 -13 -3 -16 -49 -16
-31 0 -58 -4 -62 -10 -9 -15 34 -52 53 -45 36 15 52 17 52 7 0 -33 -76 -41
-111 -13 -31 25 -34 98 -5 130 23 25 77 28 100 5z m252 5 c8 -7 14 -7 19 1 3
5 24 10 46 10 48 0 59 -21 59 -111 0 -46 -3 -59 -15 -59 -12 0 -15 13 -15 58
0 67 -16 98 -47 88 -24 -8 -33 -33 -33 -98 0 -36 -4 -48 -15 -48 -12 0 -15 14
-15 69 0 61 -2 70 -20 76 -36 11 -50 -12 -50 -81 0 -50 -3 -64 -15 -64 -12 0
-15 16 -15 84 l0 83 52 2 c28 0 57 -4 64 -10z m194 -74 c0 -69 -3 -85 -15 -85
-12 0 -15 16 -15 85 0 69 3 85 15 85 12 0 15 -16 15 -85z m166 74 c8 -7 14 -7
19 1 9 14 68 13 83 -2 7 -7 12 -42 12 -85 0 -58 -3 -73 -15 -73 -12 0 -15 14
-15 70 0 56 -3 72 -16 77 -34 13 -49 -11 -52 -81 -2 -50 -6 -66 -17 -66 -12 0
-15 15 -15 64 0 69 -14 92 -50 81 -18 -6 -20 -15 -20 -76 0 -55 -3 -69 -15
-69 -12 0 -15 16 -15 84 l0 83 52 2 c28 0 57 -4 64 -10z m1457 -31 c43 -87
-42 -167 -114 -109 -19 15 -24 29 -24 64 0 62 25 89 79 85 36 -3 43 -7 59 -40z
m127 31 c0 -5 -8 -13 -17 -16 -28 -10 -33 -24 -33 -85 0 -45 -3 -58 -15 -58
-12 0 -15 16 -15 84 l0 84 40 0 c22 0 40 -4 40 -9z m170 -74 c0 -69 -3 -85
-15 -85 -12 0 -15 16 -15 85 0 69 3 85 15 85 12 0 15 -16 15 -85z m286 64 c29
-32 26 -105 -5 -130 -46 -37 -104 -20 -120 37 -10 36 -2 73 21 101 17 21 82
16 104 -8z m164 -64 c0 -69 -3 -85 -15 -85 -12 0 -15 16 -15 85 0 69 3 85 15
85 12 0 15 -16 15 -85z m183 43 c43 -87 -42 -167 -114 -109 -19 15 -24 29 -24
64 0 62 25 89 79 85 36 -3 43 -7 59 -40z m1350 0 c43 -87 -42 -167 -114 -109
-19 15 -24 29 -24 64 0 62 25 89 79 85 36 -3 43 -7 59 -40z m174 12 c19 -37
17 -140 -2 -140 -11 0 -15 12 -15 49 0 88 -27 123 -64 85 -11 -10 -16 -34 -16
-75 0 -46 -3 -59 -15 -59 -12 0 -15 16 -15 84 l0 83 57 -1 c51 -1 59 -4 70
-26z m271 18 c5 -7 12 -45 14 -84 l3 -71 -52 -1 c-56 -1 -83 14 -83 48 0 29
28 50 66 50 31 0 35 3 32 23 -4 27 -39 35 -58 12 -7 -8 -16 -15 -21 -15 -13 0
-11 24 3 38 16 16 83 15 96 0z m295 -30 c43 -87 -42 -167 -114 -109 -19 15
-24 29 -24 64 0 62 25 89 79 85 36 -3 43 -7 59 -40z m-10493 -2193 l0 -305
-60 0 -60 0 0 305 0 305 60 0 60 0 0 -305z m410 299 c0 -3 -24 -32 -52 -65
-50 -57 -54 -59 -100 -59 -27 0 -48 3 -48 6 0 3 16 33 36 65 l37 59 63 0 c35
0 64 -3 64 -6z m6420 -299 l0 -305 -55 0 c-44 0 -55 3 -55 16 0 9 -3 14 -7 12
-61 -31 -91 -39 -126 -34 -93 15 -141 90 -141 221 -1 140 58 219 165 219 27 0
57 -7 73 -17 l26 -17 0 105 0 105 60 0 60 0 0 -305z m-2261 270 c17 -17 18
-60 1 -80 -9 -11 -26 -15 -54 -13 -32 2 -44 9 -56 30 -17 32 -8 55 31 75 26
14 56 9 78 -12z m3184 -7 c21 -25 21 -37 1 -66 -11 -16 -25 -22 -53 -22 -40 0
-55 11 -63 46 -15 63 70 94 115 42z m-8100 -1 c83 -36 130 -103 147 -214 20
-130 -18 -260 -92 -313 -121 -88 -290 -48 -361 84 -19 36 -22 56 -22 166 0
119 1 127 28 172 30 51 80 95 124 108 44 13 141 11 176 -3z m4168 1 c54 -18
87 -48 114 -102 39 -78 36 -86 -34 -86 -59 0 -60 0 -71 35 -15 45 -44 65 -95
65 -85 0 -115 -51 -115 -195 0 -113 15 -156 61 -180 61 -32 128 -5 149 61 11
33 13 34 65 34 30 0 57 -4 60 -10 3 -5 1 -29 -6 -52 -27 -102 -148 -164 -268
-140 -77 16 -125 53 -158 121 -26 51 -28 65 -28 171 1 100 4 121 24 163 25 50
67 92 116 113 38 17 141 18 186 2z m1877 -40 l3 -47 -128 -3 -128 -3 0 -70 0
-70 113 -3 112 -3 0 -49 0 -50 -115 0 -115 0 0 -115 0 -115 -60 0 -60 0 0 283
c0 156 3 287 7 291 4 3 88 5 187 4 l181 -3 3 -47z m-5337 -113 c66 -35 76 -69
82 -292 l3 -123 -57 0 c-40 0 -58 4 -62 14 -5 12 -12 11 -44 -5 -48 -24 -86
-24 -138 1 -101 49 -98 189 5 233 14 6 57 13 95 16 67 6 70 7 67 30 -3 32 -30
61 -54 61 -10 0 -30 -11 -44 -25 -20 -21 -35 -25 -79 -25 -48 0 -55 3 -55 19
0 23 43 76 74 93 55 30 151 31 207 3z m829 0 c59 -31 89 -82 97 -170 l6 -65
-137 0 c-152 0 -159 -4 -107 -59 35 -38 88 -42 140 -10 l34 21 30 -31 c26 -26
29 -32 17 -46 -39 -47 -147 -75 -216 -56 -100 27 -154 99 -154 206 0 79 13
122 50 167 52 63 164 83 240 43z m1022 14 c66 -15 118 -62 118 -108 0 -31 0
-31 -54 -31 -50 0 -56 2 -68 28 -23 47 -108 40 -108 -9 0 -22 35 -40 120 -63
200 -55 115 -278 -95 -251 -62 7 -109 34 -135 77 -34 56 -28 68 35 68 30 0 55
-4 55 -10 0 -22 41 -50 74 -50 32 0 66 20 66 39 0 18 -39 40 -106 59 -111 34
-149 83 -125 162 13 43 47 73 101 88 47 14 61 14 122 1z m478 -18 c58 -29 92
-88 97 -168 7 -91 -10 -148 -56 -194 -74 -75 -196 -78 -277 -7 -47 41 -65 89
-65 170 -1 108 54 197 129 214 15 3 32 7 37 9 20 8 101 -7 135 -24z m1608 2
c59 -28 66 -50 73 -223 3 -85 9 -163 13 -172 7 -16 2 -18 -53 -18 -44 0 -63 4
-67 14 -5 12 -12 11 -45 -6 -66 -34 -167 -7 -200 54 -16 30 -13 106 6 134 25
38 90 64 163 64 59 0 62 1 62 25 0 28 -32 65 -56 65 -24 0 -54 -19 -54 -35 0
-12 -14 -15 -60 -15 -58 0 -60 1 -60 26 0 37 59 90 113 103 51 12 120 5 165
-16z m652 -2 c58 -29 92 -88 97 -168 7 -91 -10 -148 -56 -194 -74 -75 -196
-78 -277 -7 -47 41 -65 89 -65 170 -1 108 54 197 129 214 15 3 32 7 37 9 20 8
101 -7 135 -24z m1038 -33 l3 -58 -46 0 c-78 0 -85 -15 -85 -180 l0 -140 -60
0 -60 0 0 215 0 215 60 0 c56 0 60 -2 60 -22 0 -15 3 -19 8 -11 13 20 66 43
92 41 23 -3 25 -7 28 -60z m324 36 c49 -25 80 -85 86 -164 l5 -70 -132 0
c-121 0 -131 -1 -131 -19 0 -10 12 -30 26 -45 34 -33 98 -36 137 -6 34 27 42
25 68 -11 l22 -32 -31 -28 c-79 -71 -210 -64 -288 15 -117 116 -64 339 88 377
41 10 114 2 150 -17z m878 1 c54 -28 84 -84 94 -172 l7 -63 -136 0 c-151 0
-161 -6 -106 -61 36 -36 88 -39 138 -8 l35 22 26 -27 c31 -30 26 -47 -27 -83
-97 -66 -256 -23 -306 84 -25 52 -24 155 2 214 22 50 71 96 111 105 15 3 32 7
37 9 17 7 99 -6 125 -20z m398 -37 l3 -58 -46 0 c-78 0 -85 -15 -85 -180 l0
-140 -60 0 -60 0 0 215 0 215 60 0 c56 0 60 -2 60 -22 0 -15 3 -19 8 -11 13
20 66 43 92 41 23 -3 25 -7 28 -60z m532 37 c33 -17 66 -54 74 -82 3 -13 9
-32 12 -43 5 -18 1 -20 -54 -20 -56 0 -60 2 -66 25 -15 60 -98 58 -123 -3 -20
-48 -13 -155 12 -182 32 -36 115 -16 115 27 0 9 16 13 60 13 l60 0 -6 -27
c-29 -131 -215 -175 -315 -74 -41 41 -59 91 -59 167 0 112 54 192 145 215 37
10 112 1 145 -16z m396 10 c90 -26 134 -97 134 -212 -1 -111 -50 -188 -138
-213 -144 -40 -261 52 -262 205 0 119 43 193 129 219 60 19 77 19 137 1z
m-7056 -149 c0 -127 3 -157 16 -170 20 -20 63 -20 92 0 21 15 22 21 22 170 l0
154 60 0 60 0 0 -215 0 -215 -55 0 c-44 0 -55 3 -55 16 0 9 -3 14 -7 12 -62
-32 -92 -40 -130 -34 -104 14 -123 56 -123 276 l0 160 60 0 60 0 0 -154z
m1510 0 c0 -127 3 -157 16 -170 20 -20 63 -20 92 0 21 15 22 21 22 170 l0 154
60 0 60 0 0 -215 0 -215 -55 0 c-44 0 -55 3 -55 16 0 9 -3 14 -7 12 -62 -32
-92 -40 -130 -34 -104 14 -123 56 -123 276 l0 160 60 0 60 0 0 -154z m1610
-61 l0 -215 -60 0 -60 0 0 215 0 215 60 0 60 0 0 -215z m3180 0 l0 -215 -60 0
-60 0 0 215 0 215 60 0 60 0 0 -215z m-7132 -185 c-4 -55 -12 -81 -35 -118
-33 -53 -50 -61 -81 -35 l-21 18 19 55 c11 30 19 76 20 103 l0 47 51 0 52 0
-5 -70z m8372 -939 c0 -13 -8 -21 -22 -23 -31 -4 -39 -48 -9 -48 12 0 21 -6
21 -15 0 -8 -9 -15 -20 -15 -19 0 -20 -7 -20 -90 0 -83 -1 -90 -20 -90 -18 0
-20 7 -20 86 0 77 -2 86 -20 91 -26 7 -26 23 -1 30 13 3 21 15 23 36 2 22 11
35 28 44 37 19 60 16 60 -6z m-8620 -136 c0 -138 -1 -145 -20 -145 -19 0 -20
7 -20 145 0 138 1 145 20 145 19 0 20 -7 20 -145z m2900 1 l0 -144 -64 -1
c-59 -1 -67 2 -85 25 -32 41 -29 127 5 161 21 21 32 25 65 20 l39 -5 0 44 c0
37 3 44 20 44 19 0 20 -7 20 -144z m-6260 114 c0 -18 -7 -20 -65 -20 l-65 0 0
-40 0 -40 60 0 c47 0 60 -3 60 -15 0 -12 -13 -15 -60 -15 l-60 0 0 -50 0 -50
70 0 c56 0 70 -3 70 -15 0 -12 -17 -15 -90 -15 l-90 0 0 140 0 140 85 0 c78 0
85 -2 85 -20z m830 0 c0 -13 -7 -20 -20 -20 -19 0 -27 20 -13 33 13 14 33 6
33 -13z m3058 -3 c2 -12 -3 -17 -17 -17 -15 0 -21 6 -21 21 0 25 33 22 38 -4z
m1330 0 c2 -12 -3 -17 -17 -17 -15 0 -21 6 -21 21 0 25 33 22 38 -4z m3482
-74 c18 -54 35 -101 39 -105 4 -4 23 38 43 95 28 83 39 103 57 105 11 2 21 0
21 -5 0 -4 -22 -66 -49 -138 -66 -177 -73 -178 -134 -8 -26 70 -47 134 -47
141 0 6 9 12 19 12 16 0 26 -19 51 -97z m2580 77 c0 -13 -7 -20 -20 -20 -13 0
-20 7 -20 20 0 13 7 20 20 20 13 0 20 -7 20 -20z m1750 0 c0 -13 -7 -20 -20
-20 -19 0 -27 20 -13 33 13 14 33 6 33 -13z m1060 -80 c0 -93 -1 -100 -20
-100 -19 0 -20 7 -20 100 0 93 1 100 20 100 19 0 20 -7 20 -100z m-13782 52
c2 -12 10 -22 18 -22 8 0 14 -7 14 -15 0 -8 -7 -15 -15 -15 -12 0 -15 -15 -15
-75 0 -60 3 -75 15 -75 8 0 15 -7 15 -15 0 -18 -41 -20 -58 -3 -7 7 -12 42
-12 86 0 65 -2 74 -20 79 -11 3 -20 12 -20 19 0 8 9 14 20 14 15 0 20 7 20 26
0 33 33 30 38 -4z m1032 3 c0 -18 5 -25 20 -25 11 0 20 -7 20 -15 0 -8 -9 -15
-20 -15 -18 0 -20 -7 -20 -71 0 -62 2 -71 20 -76 32 -8 24 -33 -10 -33 -39 0
-50 23 -50 109 0 64 -2 71 -20 71 -11 0 -20 5 -20 11 0 6 9 13 20 16 13 3 20
14 20 29 0 17 6 24 20 24 15 0 20 -7 20 -25z m1068 -3 c2 -12 10 -22 18 -22 8
0 14 -7 14 -15 0 -8 -7 -15 -15 -15 -12 0 -15 -15 -15 -75 0 -60 3 -75 15 -75
8 0 15 -7 15 -15 0 -18 -41 -20 -58 -3 -7 7 -12 42 -12 86 0 65 -2 74 -20 79
-11 3 -20 12 -20 19 0 8 9 14 20 14 15 0 20 7 20 26 0 33 33 30 38 -4z m8412
3 c0 -18 5 -25 20 -25 11 0 20 -6 20 -14 0 -7 -9 -16 -20 -19 -17 -4 -20 -14
-20 -72 0 -58 3 -68 20 -72 31 -8 25 -33 -8 -33 -44 0 -52 16 -52 102 0 71 -2
78 -20 78 -11 0 -20 5 -20 11 0 6 9 13 20 16 13 3 20 14 20 29 0 17 6 24 20
24 15 0 20 -7 20 -25z m1448 -3 c2 -12 10 -22 18 -22 8 0 14 -7 14 -15 0 -8
-7 -15 -15 -15 -12 0 -15 -15 -15 -75 0 -60 3 -75 15 -75 8 0 15 -7 15 -15 0
-18 -41 -20 -58 -3 -7 7 -12 42 -12 86 0 65 -2 74 -20 79 -11 3 -20 12 -20 19
0 8 9 14 20 14 15 0 20 7 20 26 0 33 33 30 38 -4z m1292 4 c0 -15 7 -26 20
-29 11 -3 20 -10 20 -16 0 -6 -9 -11 -20 -11 -18 0 -20 -7 -20 -71 0 -62 2
-71 20 -76 31 -8 25 -33 -8 -33 -43 0 -52 16 -52 98 0 65 -2 74 -20 79 -11 3
-20 12 -20 19 0 8 9 14 20 14 15 0 20 7 20 25 0 18 5 25 20 25 14 0 20 -7 20
-24z m-13480 -35 c0 -5 12 -5 28 1 71 27 102 -14 102 -133 0 -62 -2 -69 -20
-69 -18 0 -20 7 -20 63 0 105 -19 133 -66 102 -22 -14 -24 -23 -24 -90 0 -68
-2 -75 -20 -75 -19 0 -20 7 -20 105 0 98 1 105 20 105 11 0 20 -4 20 -9z m342
-72 c2 -65 7 -84 21 -93 12 -8 22 -8 35 0 13 9 18 29 22 90 4 65 8 79 23 82
15 3 17 -7 17 -101 l0 -105 -62 -1 c-89 -1 -98 10 -98 121 0 81 2 88 20 88 17
0 19 -8 22 -81z m296 65 c22 -15 31 -54 12 -54 -6 0 -23 9 -38 20 -17 13 -35
18 -46 14 -28 -11 -13 -38 29 -52 101 -32 92 -122 -12 -122 -45 0 -83 25 -83
55 0 22 33 18 48 -6 17 -27 66 -23 70 7 2 17 -5 23 -40 33 -56 17 -68 28 -68
62 0 34 32 59 75 59 17 0 41 -7 53 -16z m112 -89 c0 -98 -1 -105 -20 -105 -19
0 -20 7 -20 105 0 98 1 105 20 105 19 0 20 -7 20 -105z m188 85 c19 -18 22
-32 22 -90 0 -37 2 -75 5 -82 9 -22 -124 -22 -147 -1 -18 17 -24 59 -10 80 10
15 57 33 88 33 30 0 32 25 3 40 -16 9 -26 8 -44 -4 -50 -33 -75 -13 -29 23 34
27 84 27 112 1z m211 -6 c33 -41 3 -64 -32 -24 -20 24 -27 24 -52 7 -24 -18
-13 -34 35 -47 45 -12 70 -33 70 -61 0 -59 -109 -83 -149 -33 -12 15 -21 31
-21 35 0 17 36 9 53 -11 20 -24 50 -26 67 -5 17 20 5 33 -40 45 -45 12 -70 33
-70 61 0 58 100 82 139 33z m319 9 c17 -15 21 -33 24 -104 l4 -86 -65 -1 c-74
-1 -101 14 -101 58 0 36 29 60 79 67 41 6 51 19 29 41 -16 16 -33 15 -52 -4
-9 -8 -26 -14 -38 -12 l-23 3 27 28 c32 32 85 37 116 10z m309 -5 c12 -13 24
-40 28 -60 l7 -38 -71 0 c-75 0 -84 -7 -51 -40 24 -24 48 -25 78 -4 20 14 23
14 29 -2 9 -24 -23 -44 -71 -44 -44 1 -66 13 -84 47 -25 46 -5 128 35 152 31
18 78 13 100 -11z m103 10 c0 -9 3 -9 12 0 16 16 73 15 90 -2 12 -11 17 -11
33 0 27 20 72 17 95 -6 17 -17 20 -33 20 -105 0 -78 -2 -85 -20 -85 -18 0 -20
7 -20 80 0 69 -3 81 -20 90 -14 8 -26 8 -40 0 -17 -9 -20 -21 -20 -90 0 -73
-2 -80 -20 -80 -18 0 -20 7 -20 70 0 56 -4 74 -20 90 -20 20 -47 18 -62 -4 -4
-6 -8 -44 -8 -83 0 -66 -2 -73 -20 -73 -19 0 -20 7 -20 105 0 98 1 105 20 105
11 0 20 -5 20 -12z m657 -10 c12 -13 24 -40 28 -60 l7 -38 -71 0 c-75 0 -84
-7 -51 -40 24 -24 48 -25 78 -4 20 14 23 14 29 -2 9 -24 -23 -44 -71 -44 -44
1 -66 13 -84 47 -25 46 -5 128 35 152 31 18 78 13 100 -11z m208 -3 c30 -29
32 -55 5 -55 -11 0 -20 7 -20 15 0 26 -38 38 -64 21 -28 -18 -35 -49 -24 -93
11 -43 53 -56 79 -25 19 24 49 30 49 10 0 -28 -43 -58 -85 -58 -66 0 -101 59
-84 140 15 69 95 94 144 45z m95 15 c0 -7 6 -7 19 0 31 16 69 12 91 -10 17
-17 20 -33 20 -105 0 -78 -2 -85 -20 -85 -18 0 -20 7 -20 74 0 54 -4 79 -16
90 -20 21 -30 20 -54 -4 -16 -16 -20 -33 -20 -90 0 -63 -2 -70 -20 -70 -19 0
-20 7 -20 98 0 54 3 102 7 105 10 11 33 8 33 -3z m315 -6 c50 -33 52 -144 2
-179 -26 -18 -86 -19 -108 -2 -26 20 -39 53 -39 97 0 79 81 126 145 84z m306
6 c52 -28 63 -129 18 -176 -35 -37 -99 -34 -133 7 -41 48 -29 139 21 168 23
13 69 14 94 1z m207 -2 c9 -9 12 -9 12 0 0 7 9 12 20 12 19 0 20 -7 20 -104 0
-123 -11 -160 -50 -176 -52 -21 -131 6 -111 38 6 10 14 10 36 -2 33 -17 65 -8
76 22 7 19 5 21 -21 15 -50 -9 -80 4 -97 44 -31 76 7 163 72 163 17 0 36 -5
43 -12z m142 -93 c0 -98 -1 -105 -20 -105 -19 0 -20 7 -20 105 0 98 1 105 20
105 19 0 20 -7 20 -105z m181 86 c21 -17 24 -29 27 -104 l4 -84 -68 -1 c-74
-1 -104 14 -104 52 0 40 27 65 79 72 40 5 48 9 44 24 -3 10 -12 21 -20 25 -19
7 -53 -3 -53 -16 0 -5 -9 -9 -20 -9 -27 0 -25 25 2 44 31 22 81 20 109 -3z
m300 6 c23 -17 39 -52 39 -81 0 -25 -2 -26 -70 -26 l-70 0 12 -25 c15 -33 51
-42 82 -21 20 13 26 13 36 2 16 -21 -25 -46 -75 -46 -47 0 -78 26 -89 73 -9
39 10 103 37 122 26 18 76 19 98 2z m306 -9 c18 -19 22 -38 25 -105 l3 -81
-60 0 c-74 -1 -92 4 -105 28 -26 48 24 100 95 100 29 0 32 12 9 34 -19 20 -38
20 -54 1 -16 -19 -50 -20 -50 -1 0 45 102 62 137 24z m222 -5 c29 -36 29 -120
0 -158 -19 -23 -28 -26 -65 -23 l-44 3 0 -42 c0 -36 -3 -43 -20 -43 -19 0 -20
7 -20 143 l0 143 64 2 c59 1 67 -1 85 -25z m199 10 c17 -15 21 -33 24 -104 l4
-86 -65 -1 c-74 -1 -101 14 -101 58 0 36 29 60 79 67 41 6 51 19 29 41 -16 16
-33 15 -52 -4 -9 -8 -26 -14 -38 -12 l-23 3 27 28 c32 32 85 37 116 10z m122
-88 c0 -98 -1 -105 -20 -105 -19 0 -20 7 -20 105 0 98 1 105 20 105 19 0 20
-7 20 -105z m96 69 l21 -37 22 37 c13 21 31 36 42 36 25 0 24 -7 -10 -59 -17
-25 -27 -49 -24 -55 4 -6 19 -30 35 -53 l29 -43 -25 0 c-17 0 -31 10 -47 36
l-22 37 -21 -37 c-14 -24 -28 -36 -43 -36 -29 0 -29 3 7 55 17 24 30 46 30 50
0 4 -13 26 -30 50 -36 52 -36 55 -7 55 15 0 29 -12 43 -36z m267 25 c52 -24
65 -126 22 -173 -29 -32 -91 -36 -124 -8 -43 34 -45 125 -4 166 28 28 66 33
106 15z m127 2 c0 -5 12 -5 28 1 71 27 102 -14 102 -133 0 -62 -2 -69 -20 -69
-18 0 -20 7 -20 63 0 105 -19 133 -66 102 -22 -14 -24 -23 -24 -90 0 -68 -2
-75 -20 -75 -19 0 -20 7 -20 105 0 98 1 105 20 105 11 0 20 -4 20 -9z m308 -8
c17 -15 21 -33 24 -104 l4 -86 -65 -1 c-74 -1 -101 14 -101 58 0 36 29 60 79
67 41 6 51 19 29 41 -16 16 -33 15 -52 -4 -9 -8 -26 -14 -38 -12 l-23 3 27 28
c32 32 85 37 116 10z m423 7 c52 -28 63 -129 18 -176 -35 -37 -99 -34 -133 7
-41 48 -29 139 21 168 23 13 69 14 94 1z m219 -2 c0 -9 3 -9 12 0 13 13 56 16
83 6 44 -17 59 -116 24 -173 -19 -32 -22 -33 -70 -29 l-49 5 0 -43 c0 -37 -3
-44 -20 -44 -19 0 -20 7 -20 138 0 76 3 142 7 145 11 11 33 8 33 -5z m311 2
c52 -28 63 -129 18 -176 -35 -37 -99 -34 -133 7 -41 48 -29 139 21 168 23 13
69 14 94 1z m189 -11 c0 -12 -7 -19 -18 -19 -33 0 -42 -22 -42 -97 0 -66 -2
-73 -20 -73 -19 0 -20 7 -20 104 l0 104 50 0 c42 0 50 -3 50 -19z m290 -102
c0 -112 -1 -119 -25 -142 -29 -30 -83 -33 -115 -7 -34 27 -18 44 24 27 29 -12
36 -12 54 1 36 25 27 40 -22 36 -37 -3 -46 0 -65 23 -31 41 -30 127 3 160 21
21 33 24 85 22 l61 -1 0 -119z m187 101 c18 -19 22 -38 25 -105 l3 -81 -60 0
c-74 -1 -92 4 -105 28 -26 48 24 100 95 100 29 0 32 12 9 34 -19 20 -38 20
-54 1 -16 -19 -50 -20 -50 -1 0 45 102 62 137 24z m113 10 c0 -9 3 -9 12 0 17
17 73 15 88 -3 12 -14 15 -14 30 0 21 19 70 19 96 1 16 -12 20 -29 22 -105 4
-87 3 -91 -17 -91 -19 0 -21 5 -21 74 0 54 -4 79 -16 90 -19 20 -25 20 -49 2
-16 -11 -20 -30 -23 -90 -4 -67 -7 -76 -23 -76 -17 0 -19 8 -19 80 0 87 -12
106 -57 89 -21 -8 -23 -15 -23 -89 0 -73 -2 -80 -20 -80 -19 0 -20 7 -20 105
0 98 1 105 20 105 11 0 20 -5 20 -12z m435 -13 c17 -16 25 -35 25 -60 l0 -35
-65 0 c-36 0 -65 -3 -65 -8 0 -4 7 -18 16 -30 17 -25 50 -29 73 -8 11 10 22
12 31 6 12 -7 11 -12 -4 -29 -29 -32 -96 -29 -130 5 -21 22 -26 36 -26 76 0
41 5 54 29 79 38 37 82 39 116 4z m193 9 c22 -15 31 -54 12 -54 -6 0 -23 9
-38 20 -17 13 -35 18 -46 14 -28 -11 -13 -38 29 -52 101 -32 92 -122 -12 -122
-45 0 -83 25 -83 55 0 22 33 18 48 -6 17 -27 66 -23 70 7 2 17 -5 23 -40 33
-56 17 -68 28 -68 62 0 34 32 59 75 59 17 0 41 -7 53 -16z m639 -6 c18 -19 22
-38 25 -105 l3 -81 -60 0 c-74 -1 -92 4 -105 28 -26 48 24 100 95 100 29 0 32
12 9 34 -19 20 -38 20 -54 1 -16 -19 -50 -20 -50 -1 0 45 102 62 137 24z m113
10 c0 -9 3 -9 12 0 17 17 73 15 88 -3 12 -14 15 -14 30 0 21 19 70 19 96 1 16
-12 20 -29 22 -105 4 -87 3 -91 -17 -91 -19 0 -21 5 -21 74 0 54 -4 79 -16 90
-19 20 -25 20 -49 2 -16 -11 -20 -30 -23 -90 -4 -67 -7 -76 -23 -76 -17 0 -19
8 -19 80 0 87 -12 106 -57 89 -21 -8 -23 -15 -23 -89 0 -73 -2 -80 -20 -80
-19 0 -20 7 -20 105 0 98 1 105 20 105 11 0 20 -5 20 -12z m423 1 c52 -24 65
-126 22 -173 -29 -32 -91 -36 -124 -8 -43 34 -45 125 -4 166 28 28 66 33 106
15z m227 -9 c11 -11 20 -27 20 -35 0 -8 -9 -15 -20 -15 -11 0 -20 4 -20 10 0
19 -39 31 -61 20 -29 -16 -19 -31 32 -49 62 -22 69 -28 69 -61 0 -37 -32 -60
-84 -60 -43 0 -76 22 -76 52 0 24 21 23 43 -2 18 -21 43 -25 66 -11 22 14 5
39 -35 50 -40 11 -74 37 -74 56 0 7 9 24 21 39 26 33 88 37 119 6z m297 -2
c24 -22 31 -58 12 -58 -7 0 -22 11 -35 25 -28 30 -38 31 -64 5 -39 -39 -17
-130 31 -130 11 0 24 9 31 20 15 23 48 27 48 5 0 -27 -42 -55 -82 -55 -55 0
-88 37 -88 97 0 74 30 112 89 113 22 0 43 -8 58 -22z m194 12 c52 -28 63 -129
18 -176 -35 -37 -99 -34 -133 7 -41 48 -29 139 21 168 23 13 69 14 94 1z m122
-2 c4 -10 7 -10 18 0 7 6 28 12 45 12 50 0 64 -28 64 -127 0 -76 -2 -83 -20
-83 -18 0 -20 7 -20 80 0 87 -12 106 -57 89 -21 -8 -23 -15 -23 -89 0 -73 -2
-80 -20 -80 -19 0 -20 7 -20 105 0 84 3 105 14 105 8 0 16 -6 19 -12z m305 -4
c22 -15 31 -54 12 -54 -6 0 -23 9 -38 20 -17 13 -35 18 -46 14 -28 -11 -13
-38 29 -52 101 -32 92 -122 -12 -122 -45 0 -83 25 -83 55 0 22 38 18 50 -6 15
-27 64 -23 68 7 2 17 -5 23 -40 33 -56 17 -68 28 -68 62 0 34 32 59 75 59 17
0 41 -7 53 -16z m302 -5 c0 -14 -7 -19 -25 -19 -32 0 -45 -31 -45 -111 0 -52
-2 -59 -20 -59 -19 0 -20 7 -20 98 0 54 2 101 5 104 3 2 27 5 55 6 43 1 50 -2
50 -19z m60 -50 c0 -102 25 -134 72 -92 14 13 18 31 18 90 0 66 2 73 20 73 19
0 20 -7 20 -103 l0 -104 -69 -1 c-52 -1 -72 2 -82 14 -8 9 -15 53 -17 105 -4
85 -4 89 17 89 19 0 21 -5 21 -71z m220 -34 c0 -98 -1 -105 -20 -105 -19 0
-20 7 -20 105 0 98 1 105 20 105 19 0 20 -7 20 -105z m150 84 c0 -12 -7 -19
-18 -19 -33 0 -42 -22 -42 -97 0 -66 -2 -73 -20 -73 -19 0 -20 7 -20 104 l0
104 50 0 c42 0 50 -3 50 -19z m253 10 c52 -24 65 -126 22 -173 -29 -32 -91
-36 -124 -8 -43 34 -45 125 -4 166 28 28 66 33 106 15z m357 -68 c0 -83 11
-106 47 -99 27 5 43 47 43 116 0 55 2 63 18 60 15 -3 17 -17 20 -104 l3 -101
-70 -1 c-92 -2 -101 10 -101 125 0 76 2 83 20 83 18 0 20 -7 20 -79z m342 -2
c2 -65 7 -84 21 -93 12 -8 22 -8 35 0 13 9 18 29 22 90 4 65 8 79 23 82 15 3
17 -7 17 -101 l0 -105 -62 -1 c-89 -1 -98 10 -98 121 0 81 2 88 20 88 17 0 19
-8 22 -81z m208 69 c0 -9 3 -9 12 0 19 19 48 15 48 -8 0 -13 -7 -20 -18 -20
-33 0 -42 -22 -42 -97 0 -66 -2 -73 -20 -73 -19 0 -20 7 -20 105 0 98 1 105
20 105 11 0 20 -5 20 -12z m225 -4 c50 -33 52 -144 2 -179 -26 -18 -86 -19
-108 -2 -26 20 -39 53 -39 97 0 79 81 126 145 84z m215 -117 c0 -144 -4 -157
-52 -157 -33 0 -39 25 -8 33 19 5 20 14 20 131 0 119 1 126 20 126 19 0 20 -7
20 -133z m90 62 c0 -78 11 -109 40 -109 37 0 50 27 50 106 0 67 2 74 20 74 19
0 20 -7 20 -104 l0 -103 -64 -1 c-92 -2 -99 6 -104 117 -4 87 -4 91 17 91 19
0 21 -5 21 -71z m210 61 c0 -7 6 -7 19 0 31 16 69 12 91 -10 17 -17 20 -33 20
-105 0 -78 -2 -85 -20 -85 -18 0 -20 7 -20 74 0 54 -4 79 -16 90 -20 21 -30
20 -54 -4 -16 -16 -20 -33 -20 -90 0 -63 -2 -70 -20 -70 -19 0 -20 7 -20 98 0
54 3 102 7 105 10 11 33 8 33 -3z m431 0 c52 -28 63 -129 18 -176 -35 -37 -99
-34 -133 7 -41 48 -29 139 21 168 23 13 69 14 94 1z m217 -6 c22 -15 31 -54
12 -54 -6 0 -23 9 -38 20 -17 13 -35 18 -46 14 -28 -11 -13 -38 29 -52 101
-32 92 -122 -12 -122 -45 0 -83 25 -83 55 0 22 33 18 48 -6 17 -27 66 -23 70
7 2 17 -5 23 -40 33 -56 17 -68 28 -68 62 0 34 32 59 75 59 17 0 41 -7 53 -16z
m-5488 -174 c0 -13 -7 -20 -20 -20 -13 0 -20 7 -20 20 0 13 7 20 20 20 13 0
20 -7 20 -20z m5608 3 c5 -17 -26 -29 -40 -15 -6 6 -7 15 -3 22 9 14 37 9 43
-7z m-5503 -744 c52 -15 119 -82 134 -134 14 -52 14 -358 0 -410 -15 -52 -82
-119 -134 -134 -57 -16 -3213 -16 -3270 0 -52 15 -119 82 -134 134 -14 51 -14
358 0 409 14 50 73 113 124 131 34 12 287 14 1640 15 1142 0 1611 -3 1640 -11z"/>
<path d="M1631 6204 c-39 -19 -71 -39 -71 -44 0 -10 69 -80 79 -80 18 0 86
146 72 155 -5 2 -41 -11 -80 -31z"/>
<path d="M1036 5609 c-20 -39 -33 -75 -31 -80 9 -14 155 54 155 72 0 10 -70
79 -80 79 -5 0 -25 -32 -44 -71z"/>
<path d="M3802 5924 c-18 -12 -22 -25 -22 -64 0 -39 4 -52 22 -64 15 -11 26
-12 40 -5 14 8 18 22 18 69 0 47 -4 61 -18 69 -14 7 -25 6 -40 -5z"/>
<path d="M2297 6013 c-4 -3 -7 -55 -7 -115 l0 -108 29 0 c71 0 112 91 78 173
-19 43 -78 73 -100 50z"/>
<path d="M8892 5922 c-7 -5 -15 -25 -18 -44 -12 -72 65 -101 82 -31 12 48 -30
97 -64 75z"/>
<path d="M11010 5940 l0 -40 45 0 c34 0 47 5 55 20 19 36 -3 60 -55 60 l-45 0
0 -40z"/>
<path d="M2031 5923 c-32 -26 -32 -100 -1 -125 17 -14 26 -15 41 -7 44 23 45
107 3 136 -18 12 -24 11 -43 -4z"/>
<path d="M2607 5917 l-22 -22 44 -3 c49 -4 54 -1 46 21 -10 25 -44 28 -68 4z"/>
<path d="M3542 5924 c-34 -23 -26 -34 24 -34 49 0 55 12 18 37 -17 11 -23 10
-42 -3z"/>
<path d="M6916 5908 c-22 -31 -20 -64 4 -88 24 -24 30 -24 54 -7 22 16 26 78
7 101 -19 23 -47 20 -65 -6z"/>
<path d="M7380 5911 c-15 -29 -13 -31 30 -31 41 0 52 14 28 38 -18 18 -46 14
-58 -7z"/>
<path d="M8699 5914 c-28 -34 -5 -114 33 -114 17 0 48 41 48 63 0 53 -52 86
-81 51z"/>
<path d="M9172 5918 c-23 -23 -13 -38 23 -38 22 0 35 5 35 13 0 16 -20 37 -35
37 -6 0 -16 -5 -23 -12z"/>
<path d="M11216 5908 c-22 -31 -20 -64 4 -88 24 -24 30 -24 54 -7 22 16 26 78
7 101 -19 23 -47 20 -65 -6z"/>
<path d="M11809 5914 c-28 -34 -5 -114 33 -114 17 0 48 41 48 63 0 53 -52 86
-81 51z"/>
<path d="M12146 5908 c-22 -31 -20 -64 4 -88 24 -24 30 -24 54 -7 22 16 26 78
7 101 -19 23 -47 20 -65 -6z"/>
<path d="M13496 5908 c-22 -31 -20 -64 4 -88 24 -24 30 -24 54 -7 22 16 26 78
7 101 -19 23 -47 20 -65 -6z"/>
<path d="M13953 5844 c-8 -21 10 -36 38 -32 16 2 25 11 27 26 3 19 -1 22 -28
22 -19 0 -33 -6 -37 -16z"/>
<path d="M14236 5908 c-22 -31 -20 -64 4 -88 24 -24 30 -24 54 -7 22 16 26 78
7 101 -19 23 -47 20 -65 -6z"/>
<path d="M10436 3731 c-42 -46 -44 -155 -5 -205 24 -30 63 -34 97 -10 20 14
22 23 22 105 0 76 -3 92 -20 109 -25 25 -72 26 -94 1z"/>
<path d="M3330 3862 c-47 -48 -64 -158 -39 -257 21 -83 93 -124 158 -91 45 24
64 68 69 164 7 136 -35 212 -120 212 -30 0 -46 -7 -68 -28z"/>
<path d="M4050 3580 c-27 -27 -25 -56 4 -75 46 -31 106 7 106 67 0 26 -2 28
-45 28 -32 0 -51 -6 -65 -20z"/>
<path d="M4891 3729 c-10 -11 -21 -29 -24 -40 -5 -17 1 -19 69 -19 82 0 90 8
53 54 -25 32 -70 35 -98 5z"/>
<path d="M6392 3743 c-34 -14 -56 -121 -37 -185 19 -62 82 -78 126 -32 21 22
24 35 24 99 0 64 -3 77 -24 99 -23 25 -57 32 -89 19z"/>
<path d="M7992 3584 c-32 -22 -30 -71 3 -84 47 -18 95 16 95 67 0 32 -2 33
-38 33 -21 0 -48 -7 -60 -16z"/>
<path d="M8652 3743 c-34 -14 -56 -121 -37 -185 19 -62 82 -78 126 -32 21 22
24 35 24 99 0 64 -3 77 -24 99 -23 25 -57 32 -89 19z"/>
<path d="M10001 3724 c-36 -46 -29 -54 49 -54 63 0 70 2 70 20 0 57 -83 80
-119 34z"/>
<path d="M10892 3733 c-11 -10 -23 -28 -27 -40 -6 -22 -4 -23 70 -23 75 0 76
1 69 23 -10 35 -35 57 -64 57 -15 0 -37 -8 -48 -17z"/>
<path d="M12240 3725 c-19 -20 -25 -40 -28 -89 -7 -103 36 -155 107 -130 36
13 51 48 51 121 0 52 -4 66 -26 92 -32 39 -71 41 -104 6z"/>
<path d="M7011 2384 c-29 -21 -30 -93 -1 -119 17 -15 24 -16 46 -7 23 11 25
16 22 68 -2 47 -7 58 -24 65 -14 5 -29 2 -43 -7z"/>
<path d="M1798 2309 c-22 -12 -23 -45 -3 -53 28 -10 65 11 65 39 0 19 -5 25
-22 25 -13 0 -31 -5 -40 -11z"/>
<path d="M2328 2309 c-40 -23 -5 -70 37 -51 34 16 36 62 3 62 -13 0 -31 -5
-40 -11z"/>
<path d="M2630 2380 c-27 -27 -17 -40 31 -40 31 0 39 4 39 18 0 21 -18 42 -37
42 -7 0 -22 -9 -33 -20z"/>
<path d="M3390 2380 c-27 -27 -17 -40 31 -40 31 0 39 4 39 18 0 21 -18 42 -37
42 -7 0 -22 -9 -33 -20z"/>
<path d="M4010 2380 c-44 -44 -11 -140 43 -127 51 13 57 110 8 136 -26 14 -28
14 -51 -9z"/>
<path d="M4340 2393 c-42 -14 -54 -84 -21 -124 40 -49 108 13 85 77 -11 31
-42 54 -64 47z"/>
<path d="M4553 2390 c-29 -12 -42 -74 -22 -109 33 -59 93 -24 87 49 -4 50 -29
73 -65 60z"/>
<path d="M4845 2306 c-16 -12 -18 -18 -9 -33 6 -10 18 -19 27 -21 19 -4 60 34
54 51 -6 18 -49 20 -72 3z"/>
<path d="M5157 2382 c-27 -30 -20 -42 22 -42 47 0 55 9 35 38 -19 27 -36 28
-57 4z"/>
<path d="M5460 2313 c-32 -12 -34 -46 -3 -57 22 -9 63 20 63 44 0 20 -26 26
-60 13z"/>
<path d="M5673 2389 c-20 -7 -23 -16 -23 -62 0 -62 16 -83 55 -73 27 7 38 35
33 86 -4 40 -33 62 -65 49z"/>
<path d="M5878 2309 c-40 -23 -5 -70 37 -51 34 16 36 62 3 62 -13 0 -31 -5
-40 -11z"/>
<path d="M6372 2384 c-44 -31 -21 -134 30 -134 45 0 66 92 28 130 -24 24 -29
24 -58 4z"/>
<path d="M6798 2309 c-40 -23 -5 -70 37 -51 34 16 36 62 3 62 -13 0 -31 -5
-40 -11z"/>
<path d="M7240 2393 c-42 -14 -54 -84 -21 -124 40 -49 108 13 85 77 -11 31
-42 54 -64 47z"/>
<path d="M7540 2380 c-25 -25 -27 -92 -4 -114 36 -36 84 -2 84 59 0 57 -46 89
-80 55z"/>
<path d="M7770 2393 c-42 -14 -54 -84 -21 -124 40 -49 108 13 85 77 -11 31
-42 54 -64 47z"/>
<path d="M8201 2384 c-29 -21 -30 -93 -1 -119 17 -15 24 -16 46 -7 23 11 25
16 22 68 -2 47 -7 58 -24 65 -14 5 -29 2 -43 -7z"/>
<path d="M8420 2313 c-32 -12 -34 -46 -3 -57 22 -9 63 20 63 44 0 20 -26 26
-60 13z"/>
<path d="M8960 2380 c-30 -30 -24 -40 25 -40 49 0 59 15 29 44 -20 21 -30 20
-54 -4z"/>
<path d="M9800 2313 c-32 -12 -34 -46 -3 -57 22 -9 63 20 63 44 0 20 -26 26
-60 13z"/>
<path d="M10342 2384 c-44 -31 -21 -134 30 -134 45 0 66 92 28 130 -24 24 -29
24 -58 4z"/>
<path d="M11070 2393 c-42 -14 -54 -84 -21 -124 40 -49 108 13 85 77 -11 31
-42 54 -64 47z"/>
<path d="M12472 2384 c-44 -31 -21 -134 30 -134 45 0 66 92 28 130 -24 24 -29
24 -58 4z"/>
<path d="M13590 2380 c-44 -44 -11 -140 43 -127 51 13 57 110 8 136 -26 14
-28 14 -51 -9z"/>
<path d="M14560 2393 c-42 -14 -54 -84 -21 -124 40 -49 108 13 85 77 -11 31
-42 54 -64 47z"/>
</g>
</svg>
